<svg width="602" height="416" viewBox="0 0 602 416" fill="none" xmlns="http://www.w3.org/2000/svg">
<path d="M0 60H455V300C455 349.706 414.706 390 365 390H0V60Z" fill="#5368DF"/>
<mask id="mask0_3_337" style="mask-type:alpha" maskUnits="userSpaceOnUse" x="124" y="0" width="350" height="346">
<path d="M466 0H132C127.582 0 124 3.58172 124 8V338C124 342.418 127.582 346 132 346H466C470.418 346 474 342.418 474 338V8C474 3.58172 470.418 0 466 0Z" fill="white"/>
</mask>
<g mask="url(#mask0_3_337)">
<path d="M466 0H132C127.582 0 124 3.58172 124 8V338C124 342.418 127.582 346 132 346H466C470.418 346 474 342.418 474 338V8C474 3.58172 470.418 0 466 0Z" fill="#E8EAF6"/>
<path fill-rule="evenodd" clip-rule="evenodd" d="M120.47 0.196991H667.47V59.197H120.47V0.196991Z" fill="#242A45"/>
<path opacity="0.245" d="M162.47 46.197C171.307 46.197 178.47 39.0335 178.47 30.197C178.47 21.3604 171.307 14.197 162.47 14.197C153.633 14.197 146.47 21.3604 146.47 30.197C146.47 39.0335 153.633 46.197 162.47 46.197Z" fill="white"/>
<path opacity="0.75" d="M310.47 20.197H196.47C194.813 20.197 193.47 21.5401 193.47 23.197C193.47 24.8538 194.813 26.197 196.47 26.197H310.47C312.127 26.197 313.47 24.8538 313.47 23.197C313.47 21.5401 312.127 20.197 310.47 20.197Z" fill="white"/>
<path opacity="0.25" d="M254.47 34.197H196.47C194.813 34.197 193.47 35.5401 193.47 37.197C193.47 38.8538 194.813 40.197 196.47 40.197H254.47C256.127 40.197 257.47 38.8538 257.47 37.197C257.47 35.5401 256.127 34.197 254.47 34.197Z" fill="white"/>
<g filter="url(#filter0_d_3_337)">
<path d="M343 138H159C154.582 138 151 141.582 151 146V385C151 389.418 154.582 393 159 393H343C347.418 393 351 389.418 351 385V146C351 141.582 347.418 138 343 138Z" fill="black"/>
</g>
<path d="M343 138H159C154.582 138 151 141.582 151 146V385C151 389.418 154.582 393 159 393H343C347.418 393 351 389.418 351 385V146C351 141.582 347.418 138 343 138Z" fill="white"/>
<path opacity="0.5" d="M318 173H222.683C221.026 173 219.683 174.343 219.683 176C219.683 177.657 221.026 179 222.683 179H318C319.657 179 321 177.657 321 176C321 174.343 319.657 173 318 173Z" fill="#242A45"/>
<path d="M190 199C198.837 199 206 191.837 206 183C206 174.163 198.837 167 190 167C181.163 167 174 174.163 174 183C174 191.837 181.163 199 190 199Z" fill="#5267DF"/>
<path opacity="0.25" d="M270.719 187H222.683C221.026 187 219.683 188.343 219.683 190C219.683 191.657 221.026 193 222.683 193H270.719C272.376 193 273.719 191.657 273.719 190C273.719 188.343 272.376 187 270.719 187Z" fill="#242A45"/>
<path d="M190 255C198.837 255 206 247.837 206 239C206 230.163 198.837 223 190 223C181.163 223 174 230.163 174 239C174 247.837 181.163 255 190 255Z" fill="#5267DF"/>
<path opacity="0.5" d="M318 229H222.683C221.026 229 219.683 230.343 219.683 232C219.683 233.657 221.026 235 222.683 235H318C319.657 235 321 233.657 321 232C321 230.343 319.657 229 318 229Z" fill="#242A45"/>
<path opacity="0.25" d="M270.719 243H222.683C221.026 243 219.683 244.343 219.683 246C219.683 247.657 221.026 249 222.683 249H270.719C272.376 249 273.719 247.657 273.719 246C273.719 244.343 272.376 243 270.719 243Z" fill="#242A45"/>
<path d="M190 311C198.837 311 206 303.837 206 295C206 286.163 198.837 279 190 279C181.163 279 174 286.163 174 295C174 303.837 181.163 311 190 311Z" fill="#5267DF"/>
<path opacity="0.5" d="M318 285H222.683C221.026 285 219.683 286.343 219.683 288C219.683 289.657 221.026 291 222.683 291H318C319.657 291 321 289.657 321 288C321 286.343 319.657 285 318 285Z" fill="#242A45"/>
<path opacity="0.25" d="M270.719 299H222.683C221.026 299 219.683 300.343 219.683 302C219.683 303.657 221.026 305 222.683 305H270.719C272.376 305 273.719 303.657 273.719 302C273.719 300.343 272.376 299 270.719 299Z" fill="#242A45"/>
<path d="M190 367C198.837 367 206 359.837 206 351C206 342.163 198.837 335 190 335C181.163 335 174 342.163 174 351C174 359.837 181.163 367 190 367Z" fill="#5267DF"/>
<path opacity="0.5" d="M318 341H222.683C221.026 341 219.683 342.343 219.683 344C219.683 345.657 221.026 347 222.683 347H318C319.657 347 321 345.657 321 344C321 342.343 319.657 341 318 341Z" fill="#242A45"/>
<g filter="url(#filter1_d_3_337)">
<g filter="url(#filter2_d_3_337)">
<path d="M567 138H383C378.582 138 375 141.582 375 146V385C375 389.418 378.582 393 383 393H567C571.418 393 575 389.418 575 385V146C575 141.582 571.418 138 567 138Z" fill="black"/>
</g>
<path d="M567 138H383C378.582 138 375 141.582 375 146V385C375 389.418 378.582 393 383 393H567C571.418 393 575 389.418 575 385V146C575 141.582 571.418 138 567 138Z" fill="white"/>
<path opacity="0.5" d="M542 173H446.683C445.026 173 443.683 174.343 443.683 176C443.683 177.657 445.026 179 446.683 179H542C543.657 179 545 177.657 545 176C545 174.343 543.657 173 542 173Z" fill="#242A45"/>
<path d="M414 199C422.837 199 430 191.837 430 183C430 174.163 422.837 167 414 167C405.163 167 398 174.163 398 183C398 191.837 405.163 199 414 199Z" fill="#5267DF"/>
<path opacity="0.25" d="M494.719 187H446.683C445.026 187 443.683 188.343 443.683 190C443.683 191.657 445.026 193 446.683 193H494.719C496.376 193 497.719 191.657 497.719 190C497.719 188.343 496.376 187 494.719 187Z" fill="#242A45"/>
<path d="M414 255C422.837 255 430 247.837 430 239C430 230.163 422.837 223 414 223C405.163 223 398 230.163 398 239C398 247.837 405.163 255 414 255Z" fill="#FA5959"/>
<path opacity="0.5" d="M542 229H446.683C445.026 229 443.683 230.343 443.683 232C443.683 233.657 445.026 235 446.683 235H542C543.657 235 545 233.657 545 232C545 230.343 543.657 229 542 229Z" fill="#242A45"/>
<path opacity="0.25" d="M494.719 243H446.683C445.026 243 443.683 244.343 443.683 246C443.683 247.657 445.026 249 446.683 249H494.719C496.376 249 497.719 247.657 497.719 246C497.719 244.343 496.376 243 494.719 243Z" fill="#242A45"/>
<path d="M414 311C422.837 311 430 303.837 430 295C430 286.163 422.837 279 414 279C405.163 279 398 286.163 398 295C398 303.837 405.163 311 414 311Z" fill="#5267DF"/>
<path opacity="0.5" d="M542 285H446.683C445.026 285 443.683 286.343 443.683 288C443.683 289.657 445.026 291 446.683 291H542C543.657 291 545 289.657 545 288C545 286.343 543.657 285 542 285Z" fill="#242A45"/>
<path opacity="0.25" d="M494.719 299H446.683C445.026 299 443.683 300.343 443.683 302C443.683 303.657 445.026 305 446.683 305H494.719C496.376 305 497.719 303.657 497.719 302C497.719 300.343 496.376 299 494.719 299Z" fill="#242A45"/>
<path d="M414 367C422.837 367 430 359.837 430 351C430 342.163 422.837 335 414 335C405.163 335 398 342.163 398 351C398 359.837 405.163 367 414 367Z" fill="#5267DF"/>
<path opacity="0.5" d="M542 341H446.683C445.026 341 443.683 342.343 443.683 344C443.683 345.657 445.026 347 446.683 347H542C543.657 347 545 345.657 545 344C545 342.343 543.657 341 542 341Z" fill="#242A45"/>
</g>
<path d="M380 85H159C154.582 85 151 88.5817 151 93V111C151 115.418 154.582 119 159 119H380C384.418 119 388 115.418 388 111V93C388 88.5817 384.418 85 380 85Z" fill="white"/>
<path d="M496 236C533.003 236 563 206.003 563 169C563 131.997 533.003 102 496 102C458.997 102 429 131.997 429 169C429 206.003 458.997 236 496 236Z" fill="#495DCF" fill-opacity="0.2" stroke="#5267DF" stroke-width="20"/>
</g>
<defs>
<filter id="filter0_d_3_337" x="141" y="133" width="220" height="275" filterUnits="userSpaceOnUse" color-interpolation-filters="sRGB">
<feFlood flood-opacity="0" result="BackgroundImageFix"/>
<feColorMatrix in="SourceAlpha" type="matrix" values="0 0 0 0 0 0 0 0 0 0 0 0 0 0 0 0 0 0 127 0" result="hardAlpha"/>
<feOffset dy="5"/>
<feGaussianBlur stdDeviation="5"/>
<feColorMatrix type="matrix" values="0 0 0 0 0.285333 0 0 0 0 0.363695 0 0 0 0 0.811481 0 0 0 0.0830693 0"/>
<feBlend mode="normal" in2="BackgroundImageFix" result="effect1_dropShadow_3_337"/>
<feBlend mode="normal" in="SourceGraphic" in2="effect1_dropShadow_3_337" result="shape"/>
</filter>
<filter id="filter1_d_3_337" x="365" y="133" width="220" height="275" filterUnits="userSpaceOnUse" color-interpolation-filters="sRGB">
<feFlood flood-opacity="0" result="BackgroundImageFix"/>
<feColorMatrix in="SourceAlpha" type="matrix" values="0 0 0 0 0 0 0 0 0 0 0 0 0 0 0 0 0 0 127 0" result="hardAlpha"/>
<feOffset dy="5"/>
<feGaussianBlur stdDeviation="5"/>
<feColorMatrix type="matrix" values="0 0 0 0 0.285333 0 0 0 0 0.363695 0 0 0 0 0.811481 0 0 0 0.0830693 0"/>
<feBlend mode="normal" in2="BackgroundImageFix" result="effect1_dropShadow_3_337"/>
<feBlend mode="normal" in="SourceGraphic" in2="effect1_dropShadow_3_337" result="shape"/>
</filter>
<filter id="filter2_d_3_337" x="365" y="133" width="220" height="275" filterUnits="userSpaceOnUse" color-interpolation-filters="sRGB">
<feFlood flood-opacity="0" result="BackgroundImageFix"/>
<feColorMatrix in="SourceAlpha" type="matrix" values="0 0 0 0 0 0 0 0 0 0 0 0 0 0 0 0 0 0 127 0" result="hardAlpha"/>
<feOffset dy="5"/>
<feGaussianBlur stdDeviation="5"/>
<feColorMatrix type="matrix" values="0 0 0 0 0.285333 0 0 0 0 0.363695 0 0 0 0 0.811481 0 0 0 0.0830693 0"/>
<feBlend mode="normal" in2="BackgroundImageFix" result="effect1_dropShadow_3_337"/>
<feBlend mode="normal" in="SourceGraphic" in2="effect1_dropShadow_3_337" result="shape"/>
</filter>
</defs>
</svg>
