<svg width="569" height="388" viewBox="0 0 569 388" fill="none" xmlns="http://www.w3.org/2000/svg">
<path d="M0 58H452V298C452 347.706 411.706 388 362 388H0V58Z" fill="#5368DF"/>
<mask id="mask0_4_465" style="mask-type:alpha" maskUnits="userSpaceOnUse" x="129" y="0" width="350" height="346">
<path d="M471 0H137C132.582 0 129 3.58172 129 8V338C129 342.418 132.582 346 137 346H471C475.418 346 479 342.418 479 338V8C479 3.58172 475.418 0 471 0Z" fill="white"/>
</mask>
<g mask="url(#mask0_4_465)">
<path d="M471 0H137C132.582 0 129 3.58172 129 8V338C129 342.418 132.582 346 137 346H471C475.418 346 479 342.418 479 338V8C479 3.58172 475.418 0 471 0Z" fill="#E8EAF6"/>
<path fill-rule="evenodd" clip-rule="evenodd" d="M125.47 0.196991H672.47V59.197H125.47V0.196991Z" fill="#242A45"/>
<path opacity="0.245" d="M167.47 46.197C176.307 46.197 183.47 39.0335 183.47 30.197C183.47 21.3604 176.307 14.197 167.47 14.197C158.633 14.197 151.47 21.3604 151.47 30.197C151.47 39.0335 158.633 46.197 167.47 46.197Z" fill="white"/>
<path opacity="0.75" d="M315.47 20.197H201.47C199.813 20.197 198.47 21.5401 198.47 23.197C198.47 24.8538 199.813 26.197 201.47 26.197H315.47C317.127 26.197 318.47 24.8538 318.47 23.197C318.47 21.5401 317.127 20.197 315.47 20.197Z" fill="white"/>
<path opacity="0.25" d="M259.47 34.197H201.47C199.813 34.197 198.47 35.5401 198.47 37.197C198.47 38.8538 199.813 40.197 201.47 40.197H259.47C261.127 40.197 262.47 38.8538 262.47 37.197C262.47 35.5401 261.127 34.197 259.47 34.197Z" fill="white"/>
<path d="M385 85H164C159.582 85 156 88.5817 156 93V111C156 115.418 159.582 119 164 119H385C389.418 119 393 115.418 393 111V93C393 88.5817 389.418 85 385 85Z" fill="white"/>
<path d="M385 133H164C159.582 133 156 136.582 156 141V159C156 163.418 159.582 167 164 167H385C389.418 167 393 163.418 393 159V141C393 136.582 389.418 133 385 133Z" fill="white"/>
<path d="M385 181H164C159.582 181 156 184.582 156 189V207C156 211.418 159.582 215 164 215H385C389.418 215 393 211.418 393 207V189C393 184.582 389.418 181 385 181Z" fill="white"/>
<path d="M385 229H164C159.582 229 156 232.582 156 237V255C156 259.418 159.582 263 164 263H385C389.418 263 393 259.418 393 255V237C393 232.582 389.418 229 385 229Z" fill="white"/>
<path d="M385 277H164C159.582 277 156 280.582 156 285V303C156 307.418 159.582 311 164 311H385C389.418 311 393 307.418 393 303V285C393 280.582 389.418 277 385 277Z" fill="white"/>
<mask id="mask1_4_465" style="mask-type:alpha" maskUnits="userSpaceOnUse" x="219" y="83" width="350" height="296">
<path d="M569 83.048H219.219V379H569V83.048Z" fill="white"/>
</mask>
<g mask="url(#mask1_4_465)">
<path fill-rule="evenodd" clip-rule="evenodd" d="M220.293 333.34C220.963 335.358 222.008 337.338 223.467 339.275C248.669 372.749 342.843 383.907 435.691 377.089C484.167 373.527 518.361 352.563 539.972 333.339C544.658 329.173 549.117 324.759 553.332 320.117C558.001 314.972 561.645 309.257 564.242 303.222C571.889 285.444 570.416 264.906 559.119 248.061C549.542 233.785 536.397 223.237 529.606 211.518C516.674 189.2 585.043 132.782 540.552 97.138C524.848 84.554 491.392 81.65 454.89 83.602C410.462 85.98 361.525 95.557 334.606 103.647C278.894 120.384 244.026 144.627 236.067 171.903C228.109 199.179 249.378 211.521 267.947 237.557C285.442 262.083 209.394 300.554 220.293 333.34" fill="#3A499E"/>
<path fill-rule="evenodd" clip-rule="evenodd" d="M314.451 173.872L331.436 171L334 186.799L313 193L314.451 173.872Z" fill="#306299"/>
<path fill-rule="evenodd" clip-rule="evenodd" d="M332 172.118C332 172.118 345.176 171.77 359 166L352.504 178.254L333.751 184L332 172.118Z" fill="#FA9E89"/>
<mask id="mask2_4_465" style="mask-type:alpha" maskUnits="userSpaceOnUse" x="409" y="85" width="158" height="220">
<path d="M567 85.048H409.175V304.892H567V85.048Z" fill="white"/>
</mask>
<g mask="url(#mask2_4_465)">
<path opacity="0.152" fill-rule="evenodd" clip-rule="evenodd" d="M409.934 137.186C418.046 177.345 555.94 238.876 562.57 304.892C569.688 287.14 568.317 266.634 557.8 249.814C548.886 235.559 536.65 225.027 530.329 213.325C518.29 191.043 581.934 134.707 540.519 99.117C525.9 86.552 494.758 83.652 460.779 85.602C450.435 87.966 402.615 100.933 409.934 137.186Z" fill="white"/>
</g>
<path opacity="0.149" fill-rule="evenodd" clip-rule="evenodd" d="M217.18 326C216.195 333.866 219.52 339.336 220.82 341.227C243.249 373.899 365.314 384.79 447.95 378.135C491.096 374.659 526.455 352.42 548 327.915L217.18 326Z" fill="black"/>
<path opacity="0.128" fill-rule="evenodd" clip-rule="evenodd" d="M495.373 329.812C495.373 329.812 505.45 330.422 505.295 333.472C505.14 336.522 498.784 343.23 498.784 343.23L508.293 339.825L537 338.732L533.9 341.401C533.9 341.401 510.773 342.468 509.74 343.281C508.706 344.094 495.476 354.057 493.203 354.463C490.929 354.87 346.515 354.688 346.515 354.688C346.515 354.688 331.657 355.277 329.176 350.702C326.696 346.128 317.704 346.432 315.223 350.397C312.743 354.362 313.087 369 313.087 369C313.087 369 306.294 367.227 305.921 367.069C282.356 357.106 256 326 256 326L495.373 329.812V329.812Z" fill="black"/>
<path fill-rule="evenodd" clip-rule="evenodd" d="M333.507 300.082L327.482 334.282L326.483 339.951L328.675 340.273L328.831 340.297L333.619 341C333.619 341 349.59 301.656 350.949 292.213C352.31 282.77 325.804 245 325.804 245L297.036 247.448C296.275 255.667 307.78 271.159 318.063 283.218C326.164 292.717 333.507 300.082 333.507 300.082" fill="#F4F2F9"/>
<path fill-rule="evenodd" clip-rule="evenodd" d="M333.12 298.535L326.243 338.302L328.389 338.623L328.462 339L328.542 338.648C329.417 334.818 339.682 300.911 339.994 294C340.327 286.674 325.967 264 325.967 264L318 281.714C325.93 291.188 333.12 298.534 333.12 298.534" fill="#E0DFEA"/>
<path fill-rule="evenodd" clip-rule="evenodd" d="M295 249L323.667 246.613L325 198.886C325 198.886 318 174 310.333 174C305.78 174 301.347 175.804 298.633 180.195C296.78 183.198 295.73 187.415 296 193.091C296.61 205.868 295.27 241.998 295.033 248.113C295.013 248.69 295 249 295 249" fill="#6397D9"/>
<path fill-rule="evenodd" clip-rule="evenodd" d="M302.885 245.276L302.347 188.458L309 174.938L301.237 174L298.508 177.21C296.718 180.213 295.705 184.43 295.966 190.104C296.555 202.878 295.229 239.886 295 246L302.885 245.276V245.276Z" fill="#8BBFF7"/>
<path fill-rule="evenodd" clip-rule="evenodd" d="M303 190L324.017 230L324.563 212.009L325 197.411L307.476 190H303Z" fill="#306299"/>
<path fill-rule="evenodd" clip-rule="evenodd" d="M356.671 353H485.33C490.119 353 494.001 349.092 494.001 344.27V123.73C494.001 118.908 490.119 115 485.33 115H356.67C351.881 115 347.999 118.908 347.999 123.73V344.27C347.999 349.092 351.881 353 356.67 353" fill="white"/>
<path fill-rule="evenodd" clip-rule="evenodd" d="M356 146.29V234.71C356 236.528 357.456 238 359.253 238H482.747C484.544 238 486 236.528 486 234.71V146.29C486 144.472 484.544 143 482.747 143H359.253C357.456 143 356 144.472 356 146.29Z" fill="#E4DCF1"/>
<path fill-rule="evenodd" clip-rule="evenodd" d="M420.147 167L421.699 168.183L425 182.554L424.929 184.921L419.702 185C419.347 185.005 418.989 184.935 418.672 184.75C417.177 183.872 416.539 181.425 417.364 179.257C417.808 178.091 418.945 176.027 419.077 175.115C419.391 172.931 420.147 167 420.147 167" fill="#8E2B43"/>
<path fill-rule="evenodd" clip-rule="evenodd" d="M393 241L447.224 240.792L449.019 240.786C449.019 240.786 455.506 210.137 445.003 198.325C442.445 195.451 439.12 193.332 435.497 191.955C424.224 187.658 410.044 190.5 407.004 199.921C402.988 212.372 393 241 393 241Z" fill="#4EC9B4"/>
<path fill-rule="evenodd" clip-rule="evenodd" d="M435.16 192.489C435.16 192.489 432.945 198.515 428.057 199.783C423.169 201.052 417.568 196.559 418.027 191.326C418.027 191.326 422.711 190.639 423.474 188.366C424.402 185.606 423.78 185.512 423.78 185.512C423.78 185.512 421.947 182.022 421.336 179.486C420.725 176.949 421.641 167.116 425.918 166.166C428.623 165.564 432.945 166.483 436 170.923C436 170.923 434.472 179.486 432.334 183.609C430.195 187.732 429.126 189.635 435.16 192.489Z" fill="#FA9E89"/>
<path opacity="0.184" fill-rule="evenodd" clip-rule="evenodd" d="M359.167 116.013L492 302.239V344.483C492 349.187 488.3 353 483.737 353H363.573C358.286 353 354 348.582 354 343.131V119.827C354 116.898 356.33 115.871 359.167 116.013" fill="#F4F2F9"/>
<path fill-rule="evenodd" clip-rule="evenodd" d="M399 222.442L392.018 192L381 193.816L391.684 238L399 222.442Z" fill="#4EC9B4"/>
<path fill-rule="evenodd" clip-rule="evenodd" d="M389.8 191.137L389.2 188.031C389.2 188.031 391 186.847 390.7 185.072C390.4 183.297 391 179.155 391 179.155C391 179.155 390.043 178.508 389.425 179.673C388.985 180.502 388.3 182.41 388.3 182.41C388.3 182.41 386.004 176.244 385.474 174.62C385.249 173.929 385.022 172.853 384.499 173.017C384.224 173.103 384.324 173.732 384.371 174.347C384.511 176.191 385.299 179.131 385.299 179.131L384.899 179.365L383.236 174.089C383.163 173.833 383.043 173.445 382.774 173.424C382.536 173.404 382.299 173.534 382.299 174.126C382.299 175.31 383.574 180.203 383.574 180.203L383.255 180.422L381.32 176.144C381.187 175.821 380.707 175.849 380.625 176.188C380.56 176.456 380.579 176.838 380.798 177.38C381.398 178.86 381.998 181.226 381.998 181.226L381.848 181.399L380.798 179.229C380.61 178.882 380.149 178.659 380.015 179.029C379.827 179.547 381.473 183.999 381.473 184.296C381.473 184.592 382.599 188.622 383.799 188.918C384.999 189.214 385.074 192 385.074 192L389.8 191.137V191.137Z" fill="#FA9E89"/>
<path fill-rule="evenodd" clip-rule="evenodd" d="M459.351 264H481.65C482.948 264 484.001 262.928 484.001 261.606V258.394C484.001 257.072 482.948 256 481.65 256H459.352C458.054 256 457.001 257.072 457.001 258.394V261.606C457.001 262.928 458.054 264 459.352 264H459.351ZM427.352 264H449.65C450.948 264 452.001 262.928 452.001 261.606V258.394C452.001 257.072 450.948 256 449.65 256H427.352C426.054 256 425.001 257.072 425.001 258.394V261.606C425.001 262.928 426.054 264 427.352 264ZM393.352 264H415.65C416.948 264 418.001 262.928 418.001 261.606V258.394C418.001 257.072 416.948 256 415.65 256H393.353C392.054 256 391.001 257.072 391.001 258.394V261.606C391.001 262.928 392.054 264 393.353 264H393.352ZM361.353 264H383.65C384.948 264 386.001 262.928 386.001 261.606V258.394C386.001 257.072 384.948 256 383.65 256H361.352C360.054 256 359.001 257.072 359.001 258.394V261.606C359.001 262.928 360.054 264 361.352 264" fill="#FFDEDD"/>
<path fill-rule="evenodd" clip-rule="evenodd" d="M363.547 283H481.453C482.86 283 484 281.92 484 280.59V277.41C484 276.08 482.86 275 481.453 275H363.547C362.14 275 361 276.08 361 277.41V280.59C361 281.92 362.14 283 363.547 283ZM481.453 299C482.86 299 484 297.92 484 296.59V293.41C484 292.08 482.86 291 481.453 291H363.547C362.14 291 361 292.08 361 293.41V296.59C361 297.92 362.14 299 363.547 299H481.453ZM363.547 315H481.453C482.86 315 484 313.92 484 312.59V309.41C484 308.08 482.86 307 481.453 307H363.547C362.14 307 361 308.08 361 309.41V312.59C361 313.92 362.14 315 363.547 315ZM363.547 328H481.453C482.86 328 484 326.92 484 325.59V322.41C484 321.08 482.86 320 481.453 320H363.547C362.14 320 361 321.08 361 322.41V325.59C361 326.92 362.14 328 363.547 328Z" fill="#F4F2F9"/>
<path fill-rule="evenodd" clip-rule="evenodd" d="M438.222 163.321C438.222 163.321 431.922 154.473 420.032 159.596C408.144 164.718 421.049 173.1 421.049 173.1C421.049 173.1 421.303 169.84 423.183 168.909L423.03 171.806L429.686 172.971L430.753 170.177L431.439 173.359L434.792 174.6C434.792 174.6 432.049 184.224 430.448 185.621C430.448 185.621 429.762 187.871 429.991 188.337C430.219 188.803 440.355 191.364 441.651 189.036C442.947 186.708 440.279 183.448 439.441 181.275C438.603 179.102 440.965 167.564 438.221 163.321" fill="#FC516B"/>
<path fill-rule="evenodd" clip-rule="evenodd" d="M467.352 139H484.648C485.947 139 487 137.657 487 136C487 134.343 485.947 133 484.648 133H467.352C466.053 133 465 134.343 465 136C465 137.657 466.053 139 467.352 139Z" fill="#E4DCF1"/>
<path fill-rule="evenodd" clip-rule="evenodd" d="M441 211C441 211 438.336 230.286 435.29 238H419.23C419.23 238 416.582 229.862 429.277 227.2C438.107 225.349 441 211 441 211ZM409.389 206C409.389 206 406.129 216 406.741 219C407.351 222 410 224.2 410 226.2C410 228.2 408.37 235.8 408.37 235.8L399 236C399 236 400.556 235.734 404.093 232.95C409.491 228.7 404.857 219.325 406.003 214C406.603 211.206 409.389 206 409.389 206V206ZM399 221.772C399 221.772 398.787 230.155 397.085 228.865C395.383 227.575 396.447 215.108 394.958 210.809C393.468 206.509 389 192.752 389 192.752L392.83 192L399 221.772Z" fill="#44AD99"/>
<path fill-rule="evenodd" clip-rule="evenodd" d="M373.623 183.475C373.623 183.475 372.047 184.167 370.123 186.521C369.487 187.301 366.093 188.542 365.29 189.509C353.645 203.529 338.094 214.35 328.127 210.042C315.397 204.54 313 199.424 313 199.424L321.414 188.062C321.414 188.062 331.077 202.821 338.848 198.801C346.62 194.781 361.94 184.244 361.94 184.244L362.346 177.78C362.346 177.78 363.241 177.54 363.67 178.775C364.1 180.011 364.12 181.079 364.12 181.079L370.169 174.055C370.169 174.055 371.331 173.695 370.977 174.824C370.623 175.954 368.486 179.192 368.486 179.192C368.486 179.192 368.266 179.808 368.729 179.527C369.269 179.2 373.495 174.435 373.495 174.435C373.495 174.435 374.468 174.371 374.071 175.301C373.764 176.018 371.206 179.391 370.341 180.655C370.083 181.031 370.623 180.89 370.623 180.89L374.119 177.92C374.592 177.601 375.082 177.707 374.989 178.288C374.914 178.748 373.962 179.807 373.396 180.227C371.982 181.273 370.996 183.179 370.996 183.179L374.04 182.079C374.04 182.079 374.635 182.607 373.623 183.475V183.475ZM302 146.49L305.85 174.81L318.496 177C318.496 177 317.856 176.332 317.124 175.44C316.376 174.533 315.534 173.39 315.161 172.474C314.311 170.37 314.305 168.408 314.305 168.408C314.305 168.408 319.913 169.041 320.782 165.813C321.654 162.581 319.639 147.529 319.639 147.529C319.639 147.529 317.136 138.07 302 146.49Z" fill="#FA9E89"/>
<path fill-rule="evenodd" clip-rule="evenodd" d="M312.613 146.812C312.613 146.812 318.849 151.522 324.832 147.51C324.832 147.51 321.04 147.16 319.86 145.242C319.86 145.242 322.22 145.852 325 141.928C325 141.928 320.113 142.626 318.428 141.143C316.742 139.66 308.148 137.305 303.008 140.881C297.867 144.457 297.951 147.074 297.951 147.074C297.951 147.074 294.918 148.207 295.001 149.952C295.086 151.696 302.501 166 302.501 166L304.102 159.633C304.102 159.633 302.838 160.011 302.08 157.046C301.322 154.08 304.608 155.359 304.945 155.97C305.282 156.58 307.473 151.783 307.473 151.783L307.136 148.993C307.136 148.993 306.04 145.416 312.613 146.813" fill="#261F27"/>
<path fill-rule="evenodd" clip-rule="evenodd" d="M300.786 279.384C304.377 293.871 297.736 351.793 297.736 351.793L304.234 353C330.394 292.985 324.41 244 324.41 244L295 246.414C295 246.414 295.075 245.19 295.106 245.48C295.444 248.488 297.514 266.169 300.786 279.384" fill="white"/>
<path fill-rule="evenodd" clip-rule="evenodd" d="M333.27 337.076L340.823 342.935C340.823 342.935 343.798 342.576 344.371 343.951C344.943 345.326 345 346.881 345 346.881L337.104 347L324 341.799L326.06 336L333.27 337.076ZM303.45 354.34C303.45 354.34 306.122 358.662 308.815 362.192C309.72 363.378 311.932 363.893 312.793 366.787C313.533 369.277 312.053 371 312.053 371C312.053 371 307.088 370.106 303.634 367.043C300.181 363.979 295 358.106 295 358.106L296.418 353L303.449 354.34H303.45Z" fill="#6397D9"/>
<path fill-rule="evenodd" clip-rule="evenodd" d="M315.185 177.105C315.185 177.105 304.633 177.277 303.691 176L303 177.898C303 177.898 311.36 182.455 317 180.522L315.185 177.105V177.105Z" fill="#306299"/>
<path fill-rule="evenodd" clip-rule="evenodd" d="M330 190.916L317.412 205C317.412 205 300.59 189.918 301.008 185.19C301.425 180.463 307.588 170.675 317.042 179.667C326.24 188.415 330 190.916 330 190.916Z" fill="#8CC5F2"/>
<path fill-rule="evenodd" clip-rule="evenodd" d="M297.565 352.654L300.131 353C300.131 353 312.157 310.53 308.201 279.153C307.012 269.719 302.857 246 302.857 246L295 246.737C295.318 249.76 297.357 266.592 300.426 279.874C303.793 294.436 297.566 352.654 297.566 352.654" fill="#F4F2F9"/>
<path fill-rule="evenodd" clip-rule="evenodd" d="M311.253 175.558C312.741 175.882 313.552 175.985 314 176C313.302 175.034 312.516 173.818 312.168 172.842C311.375 170.601 311.369 168.512 311.369 168.512C311.369 168.512 308.398 167.73 308.092 168.099C307.788 168.467 308.092 174.869 311.253 175.558" fill="#E6846F"/>
<path fill-rule="evenodd" clip-rule="evenodd" d="M457 179C457 189.492 465.048 198 474.973 198C479.129 198 482.954 196.509 486 194.004V163.996C482.954 161.49 479.13 160 474.973 160C465.048 160 457 168.508 457 179Z" fill="#CEC3E2"/>
<path fill-rule="evenodd" clip-rule="evenodd" d="M457 179.5C457 189.716 464.493 198 473.734 198C477.604 198 481.164 196.548 484 194.11V164.89C481.165 162.453 477.603 161 473.734 161C464.493 161 457 169.284 457 179.5Z" fill="#C3B8D8"/>
<path fill-rule="evenodd" clip-rule="evenodd" d="M431 196.096C431 196.096 432.985 194.992 433.298 194.791C433.612 194.592 437.688 195.693 443.124 201.307C448.557 206.921 443.854 211.631 446.152 214.637C448.453 217.645 446.259 223.96 445.108 228.272C443.958 232.582 445.108 237.994 445.108 237.994L445.168 238L446.989 237.994C446.989 237.994 453.573 209.126 442.914 197.999C440.318 195.293 436.944 193.296 433.267 192L431 196.096Z" fill="#44AD99"/>
</g>
</g>
</svg>
