<svg width="668" height="415" viewBox="0 0 668 415" fill="none" xmlns="http://www.w3.org/2000/svg">
<path d="M0 59H615V310C615 367.99 567.99 415 510 415H0V59Z" fill="#5368DF"/>
<mask id="mask0_3_185" style="mask-type:alpha" maskUnits="userSpaceOnUse" x="132" y="0" width="536" height="346">
<path d="M660 0H140C135.582 0 132 3.58172 132 8V338C132 342.418 135.582 346 140 346H660C664.418 346 668 342.418 668 338V8C668 3.58172 664.418 0 660 0Z" fill="white"/>
</mask>
<g mask="url(#mask0_3_185)">
<path d="M660 0H140C135.582 0 132 3.58172 132 8V338C132 342.418 135.582 346 140 346H660C664.418 346 668 342.418 668 338V8C668 3.58172 664.418 0 660 0Z" fill="#E8EAF6"/>
<path fill-rule="evenodd" clip-rule="evenodd" d="M128.47 0.197021H675.47V59.197H128.47V0.197021Z" fill="#242A45"/>
<path opacity="0.245" d="M170.47 46.197C179.307 46.197 186.47 39.0336 186.47 30.197C186.47 21.3605 179.307 14.197 170.47 14.197C161.633 14.197 154.47 21.3605 154.47 30.197C154.47 39.0336 161.633 46.197 170.47 46.197Z" fill="white"/>
<path opacity="0.104" d="M631.47 46.197C640.307 46.197 647.47 39.0336 647.47 30.197C647.47 21.3605 640.307 14.197 631.47 14.197C622.633 14.197 615.47 21.3605 615.47 30.197C615.47 39.0336 622.633 46.197 631.47 46.197Z" fill="white"/>
<path opacity="0.75" d="M318.47 20.197H204.47C202.813 20.197 201.47 21.5402 201.47 23.197C201.47 24.8539 202.813 26.197 204.47 26.197H318.47C320.127 26.197 321.47 24.8539 321.47 23.197C321.47 21.5402 320.127 20.197 318.47 20.197Z" fill="white"/>
<path opacity="0.25" d="M262.47 34.197H204.47C202.813 34.197 201.47 35.5402 201.47 37.197C201.47 38.8539 202.813 40.197 204.47 40.197H262.47C264.127 40.197 265.47 38.8539 265.47 37.197C265.47 35.5402 264.127 34.197 262.47 34.197Z" fill="white"/>
<path d="M442 93H197C192.582 93 189 96.5817 189 101V401C189 405.418 192.582 409 197 409H442C446.418 409 450 405.418 450 401V101C450 96.5817 446.418 93 442 93Z" fill="white"/>
<path d="M604 93H492C487.582 93 484 96.5817 484 101V401C484 405.418 487.582 409 492 409H604C608.418 409 612 405.418 612 401V101C612 96.5817 608.418 93 604 93Z" fill="white"/>
<path opacity="0.5" d="M384.47 131.197H270.47C268.813 131.197 267.47 132.54 267.47 134.197C267.47 135.854 268.813 137.197 270.47 137.197H384.47C386.127 137.197 387.47 135.854 387.47 134.197C387.47 132.54 386.127 131.197 384.47 131.197Z" fill="#242A45"/>
<path d="M236.47 157.197C245.307 157.197 252.47 150.034 252.47 141.197C252.47 132.36 245.307 125.197 236.47 125.197C227.633 125.197 220.47 132.36 220.47 141.197C220.47 150.034 227.633 157.197 236.47 157.197Z" fill="#F98E5D"/>
<path opacity="0.25" d="M589.47 115.197H507.47C505.813 115.197 504.47 116.54 504.47 118.197C504.47 119.854 505.813 121.197 507.47 121.197H589.47C591.127 121.197 592.47 119.854 592.47 118.197C592.47 116.54 591.127 115.197 589.47 115.197Z" fill="#242A45"/>
<path opacity="0.25" d="M589.47 135.197H507.47C505.813 135.197 504.47 136.54 504.47 138.197C504.47 139.854 505.813 141.197 507.47 141.197H589.47C591.127 141.197 592.47 139.854 592.47 138.197C592.47 136.54 591.127 135.197 589.47 135.197Z" fill="#242A45"/>
<path opacity="0.25" d="M589.47 155.197H507.47C505.813 155.197 504.47 156.54 504.47 158.197C504.47 159.854 505.813 161.197 507.47 161.197H589.47C591.127 161.197 592.47 159.854 592.47 158.197C592.47 156.54 591.127 155.197 589.47 155.197Z" fill="#242A45"/>
<path opacity="0.25" d="M589.47 175.197H507.47C505.813 175.197 504.47 176.54 504.47 178.197C504.47 179.854 505.813 181.197 507.47 181.197H589.47C591.127 181.197 592.47 179.854 592.47 178.197C592.47 176.54 591.127 175.197 589.47 175.197Z" fill="#242A45"/>
<path opacity="0.25" d="M589.47 209.197H507.47C505.813 209.197 504.47 210.54 504.47 212.197C504.47 213.854 505.813 215.197 507.47 215.197H589.47C591.127 215.197 592.47 213.854 592.47 212.197C592.47 210.54 591.127 209.197 589.47 209.197Z" fill="#242A45"/>
<path opacity="0.25" d="M589.47 229.197H507.47C505.813 229.197 504.47 230.54 504.47 232.197C504.47 233.854 505.813 235.197 507.47 235.197H589.47C591.127 235.197 592.47 233.854 592.47 232.197C592.47 230.54 591.127 229.197 589.47 229.197Z" fill="#242A45"/>
<path opacity="0.25" d="M589.47 249.197H507.47C505.813 249.197 504.47 250.54 504.47 252.197C504.47 253.854 505.813 255.197 507.47 255.197H589.47C591.127 255.197 592.47 253.854 592.47 252.197C592.47 250.54 591.127 249.197 589.47 249.197Z" fill="#242A45"/>
<path opacity="0.25" d="M328.47 145.197H270.47C268.813 145.197 267.47 146.54 267.47 148.197C267.47 149.854 268.813 151.197 270.47 151.197H328.47C330.127 151.197 331.47 149.854 331.47 148.197C331.47 146.54 330.127 145.197 328.47 145.197Z" fill="#242A45"/>
<path d="M236.47 213.197C245.307 213.197 252.47 206.034 252.47 197.197C252.47 188.36 245.307 181.197 236.47 181.197C227.633 181.197 220.47 188.36 220.47 197.197C220.47 206.034 227.633 213.197 236.47 213.197Z" fill="#6AC6D6"/>
<path opacity="0.5" d="M384.47 187.197H270.47C268.813 187.197 267.47 188.54 267.47 190.197C267.47 191.854 268.813 193.197 270.47 193.197H384.47C386.127 193.197 387.47 191.854 387.47 190.197C387.47 188.54 386.127 187.197 384.47 187.197Z" fill="#242A45"/>
<path opacity="0.25" d="M328.47 201.197H270.47C268.813 201.197 267.47 202.54 267.47 204.197C267.47 205.854 268.813 207.197 270.47 207.197H328.47C330.127 207.197 331.47 205.854 331.47 204.197C331.47 202.54 330.127 201.197 328.47 201.197Z" fill="#242A45"/>
<path d="M236.47 269.197C245.307 269.197 252.47 262.034 252.47 253.197C252.47 244.36 245.307 237.197 236.47 237.197C227.633 237.197 220.47 244.36 220.47 253.197C220.47 262.034 227.633 269.197 236.47 269.197Z" fill="#A47ED4"/>
<path opacity="0.5" d="M384.47 243.197H270.47C268.813 243.197 267.47 244.54 267.47 246.197C267.47 247.854 268.813 249.197 270.47 249.197H384.47C386.127 249.197 387.47 247.854 387.47 246.197C387.47 244.54 386.127 243.197 384.47 243.197Z" fill="#242A45"/>
<path opacity="0.25" d="M328.47 257.197H270.47C268.813 257.197 267.47 258.54 267.47 260.197C267.47 261.854 268.813 263.197 270.47 263.197H328.47C330.127 263.197 331.47 261.854 331.47 260.197C331.47 258.54 330.127 257.197 328.47 257.197Z" fill="#242A45"/>
<path d="M236.47 325.197C245.307 325.197 252.47 318.034 252.47 309.197C252.47 300.36 245.307 293.197 236.47 293.197C227.633 293.197 220.47 300.36 220.47 309.197C220.47 318.034 227.633 325.197 236.47 325.197Z" fill="#EC7878"/>
<path opacity="0.5" d="M384.47 299.197H270.47C268.813 299.197 267.47 300.54 267.47 302.197C267.47 303.854 268.813 305.197 270.47 305.197H384.47C386.127 305.197 387.47 303.854 387.47 302.197C387.47 300.54 386.127 299.197 384.47 299.197Z" fill="#242A45"/>
<path opacity="0.25" d="M328.47 313.197H270.47C268.813 313.197 267.47 314.54 267.47 316.197C267.47 317.854 268.813 319.197 270.47 319.197H328.47C330.127 319.197 331.47 317.854 331.47 316.197C331.47 314.54 330.127 313.197 328.47 313.197Z" fill="#242A45"/>
</g>
</svg>
